<?xml version="1.0" standalone="no"?>
<!DOCTYPE svg PUBLIC "-//W3C//DTD SVG 1.1//EN" "http://www.w3.org/Graphics/SVG/1.1/DTD/svg11.dtd" >
<svg>
<metadata>
Created by FontForge 20120731 at Thu Oct 31 08:02:42 2019
 By www
</metadata>
<defs>
<font id="Cyberfunk" horiz-adv-x="456" >
  <font-face 
    font-family="Cyberfunk"
    font-weight="600"
    font-stretch="normal"
    units-per-em="1000"
    panose-1="0 0 0 0 0 0 0 0 0 0"
    ascent="750"
    descent="-250"
    x-height="440"
    cap-height="700"
    bbox="-2 -231 815 754"
    underline-thickness="50"
    underline-position="-50"
    unicode-range="U+0020-0160"
  />
<missing-glyph horiz-adv-x="294" 
 />
    <glyph glyph-name=".notdef" horiz-adv-x="294" 
 />
    <glyph glyph-name="B" unicode="B" horiz-adv-x="503" 
d="M294 396q77 -26 118 -74t41 -107q0 -43 -20.5 -80.5t-57.5 -66t-89.5 -46.5t-115.5 -22l-170 191v132l92 107h-92v270h91q59 0 109 -14t86 -38t56.5 -57t20.5 -72q0 -34 -17.5 -66t-51.5 -57zM92 430q42 0 74.5 7.5t54 20.5t32.5 29t11 33q0 13 -11 28t-32.5 28.5
t-54 22.5t-74.5 9v-178zM137 90q51 0 90 11t65.5 28.5t40 39.5t13.5 43t-13.5 43.5t-40 40.5t-65.5 30t-90 12h-46v-248h46z" />
    <glyph glyph-name="C" unicode="C" horiz-adv-x="696" 
d="M335 92q69 0 121.5 40t78.5 109h107q-17 -52 -47 -96t-69.5 -76.5t-88.5 -50.5t-105 -18q-64 0 -122.5 26t-103.5 71t-73.5 105.5t-32.5 129.5l93 -1l-82 82q9 60 37.5 112.5t71.5 91.5t97.5 61t114.5 22q95 0 169.5 -47t117.5 -125l-70 -71q-13 34 -35.5 62t-51.5 47.5
t-62.5 30t-67.5 10.5q-60 0 -104.5 -21t-75 -56t-45.5 -80t-15 -92.5t15 -93t45.5 -82.5t76 -61.5t106.5 -28.5z" />
    <glyph glyph-name="D" unicode="D" horiz-adv-x="529" 
d="M92 700q84 -4 154.5 -33t122.5 -76t81 -109t29 -132q0 -66 -23 -124t-63.5 -103.5t-96.5 -77.5t-122 -45l-82 82q62 4 115 29t91.5 62.5t60.5 83.5t22 93t-23 92t-63 80.5t-92.5 58.5t-110.5 27v-526l-92 97v312l92 117h-92v92h92v0z" />
    <glyph glyph-name="E" unicode="E" horiz-adv-x="533" 
d="M92 332l-92 93h92v275v0v0h388l-80 -92h-215v-182l226 -1v0v0v-93v0h-226v-242l-93 116v126v0zM185 90l295 2l-80 -92h-137z" />
    <glyph glyph-name="F" unicode="F" horiz-adv-x="531" 
d="M413 424v0v-91h-220v-215l-90 -118v333v0l-103 91h103v276h379v0l-80 -92h-209v-184h220z" />
    <glyph glyph-name="G" unicode="G" horiz-adv-x="665" 
d="M615 240q-17 -51 -46.5 -95t-67.5 -76.5t-84.5 -50.5t-98.5 -18q-68 0 -126 28t-101 76.5t-67 113.5t-24 139q0 68 24 130t67 109.5t101 75.5t126 28q52 0 107.5 -24.5t97.5 -67.5l-61 -65q-35 26 -67 42.5t-75 16.5q-51 0 -93 -19.5t-71.5 -53t-46 -78.5t-16.5 -96
q0 -57 16 -104t45.5 -81t71 -52.5t92.5 -18.5q69 0 120 36t75 104l-138 1l-68 91h206z" />
    <glyph glyph-name="H" unicode="H" horiz-adv-x="542" 
d="M492 700v-700h-91v332l-205 1v-334l-92 92v243l-1 -1l-104 92h105v275h92v-275h205v183z" />
    <glyph glyph-name="I" unicode="I" horiz-adv-x="143" 
d="M93 0h-93v700l93 -92v-608v0z" />
    <glyph glyph-name="J" unicode="J" horiz-adv-x="470" 
d="M420 233q0 -53 -14 -95.5t-41.5 -73.5t-69 -47.5t-96.5 -16.5q-31 0 -61 8.5t-56 25t-47.5 40.5t-34.5 54l70 71q18 -54 51 -76.5t78 -22.5q26 0 49.5 9.5t41 26.5t27.5 42t10 55v373l-105 94h105h93v-467z" />
    <glyph glyph-name="K" unicode="K" horiz-adv-x="536" 
d="M482 -1q-13 0 -24.5 0.5t-25.5 0.5h-32h-43l-357 388l94 82h-94v199l94 84v-283l259 230h116l-340 -314q80 -88 135.5 -148.5t92.5 -101t59 -64t34.5 -37t19 -21t12.5 -15.5z" />
    <glyph glyph-name="L" unicode="L" horiz-adv-x="464" 
d="M414 96v-96h-226l-188 189v511l92 -92v-511z" />
    <glyph glyph-name="M" unicode="M" horiz-adv-x="639" 
d="M509 700h80v-700v0l-91 79v332l-169 -411h-73l-165 411v-501h-91v688l79 102l215 -542l215 542v0z" />
    <glyph glyph-name="N" unicode="N" horiz-adv-x="545" 
d="M403 753l92 -81v-672h-92v-1l-313 559l1 -558l-91 70v630v0h115l288 -529v582v0z" />
    <glyph glyph-name="O" unicode="O" horiz-adv-x="707" 
d="M335 700q64 0 122.5 -28t103 -76.5t70.5 -113.5t26 -138q0 -69 -26 -131t-70.5 -109.5t-103 -75.5t-122.5 -28q-57 0 -108 18.5t-92 50.5t-70 76t-42 95h92q26 -69 83.5 -108.5t136.5 -39.5q48 0 89.5 20t72.5 54.5t49 80t18 97.5q0 56 -18 104.5t-49 84t-72.5 55.5
t-89.5 20q-66 0 -119.5 -33.5t-85 -86t-37.5 -118.5t22 -130l-115 104q0 73 26 138t71.5 113.5t106.5 76.5t131 28z" />
    <glyph glyph-name="P" unicode="P" 
d="M90 700q68 0 126 -16t100 -44.5t66 -68t24 -85.5q0 -34 -18 -67t-51 -59t-79 -44t-101 -22l-64 80v-270l-93 -103v699h90zM93 374q51 0 92 9.5t70 25t44.5 35.5t15.5 41q0 25 -15.5 47.5t-44.5 39.5t-70 26.5t-92 9.5v-234z" />
    <glyph glyph-name="Q" unicode="Q" horiz-adv-x="703" 
d="M542 0l-51 58q-44 -27 -85 -43t-86 -16q-66 0 -124 27.5t-101 74.5t-68 110t-25 134q0 75 25 140t68 113t101.5 75t124.5 27t124.5 -27t101.5 -75t68 -113t25 -140q0 -31 -6 -63.5t-17 -64t-26 -59.5t-33 -50q17 -21 24.5 -29.5t10.5 -11.5t3.5 -4t5.5 -6.5t16 -18
t35 -38.5h-111zM321 610q-49 0 -90.5 -19.5t-72 -55t-48 -84t-17.5 -105.5q0 -53 17 -100t47.5 -81.5t72 -54.5t90.5 -20q27 0 59 7t59 25l-118 145v125l177 -213q27 36 39.5 79t12.5 88q0 57 -17.5 105.5t-48 84t-72 55t-90.5 19.5z" />
    <glyph glyph-name="R" unicode="R" horiz-adv-x="513" 
d="M0 608h93l-93 92q45 1 94.5 -0.5t96.5 -9t89 -21.5t74 -37.5t50.5 -59t18.5 -84.5q0 -34 -17 -65.5t-47.5 -57.5t-72.5 -45t-93 -28l270 -292h-132l-331 371v237zM93 371h21q51 0 90.5 12t66.5 29.5t41.5 38t14.5 37.5q0 24 -11.5 45t-38.5 37t-72 26t-112 12v-237z" />
    <glyph glyph-name="S" unicode="S" horiz-adv-x="499" 
d="M394 327q29 -23 42 -56.5t13 -73.5q0 -46 -18.5 -82.5t-49 -62t-69.5 -39t-81 -13.5q-35 0 -70.5 9t-66.5 27t-55 44.5t-37 61.5l76 87q-2 -35 11.5 -60t36 -41t50.5 -23t55 -7q21 0 44 5.5t42 16t31.5 27t12.5 38.5q0 29 -10 46.5t-29 29.5t-45 21.5t-57 22.5
q-37 12 -74 27.5t-66.5 39t-48 57.5t-18.5 84q0 51 19.5 87t51 58t70 32t77.5 10q16 0 30.5 -3t25 -6.5t16.5 -7.5t6 -5l-92 -70h126l-3 -63q-11 22 -33 36.5t-48.5 21t-55 5t-51.5 -12.5t-37.5 -31.5t-14.5 -50.5t16 -51t42 -36.5t58.5 -27t65 -22t62.5 -22.5t50 -27z" />
    <glyph glyph-name="T" unicode="T" horiz-adv-x="531" 
d="M207 504l91 104v-608l-91 -90v594zM0 700h481v-92h-183v0h-195z" />
    <glyph glyph-name="U" unicode="U" horiz-adv-x="523" 
d="M473 754v-450q0 -101 -25.5 -161.5t-62.5 -92t-79.5 -41t-76.5 -9.5q-110 0 -169.5 74.5t-59.5 218.5v407l91 -92v-315q0 -103 35 -152t104 -49q67 0 108.5 49.5t41.5 151.5v461h93z" />
    <glyph glyph-name="V" unicode="V" horiz-adv-x="639" 
d="M339 0l-34 -90l-34 90l-271 700h101l175 -451l-66 -91h95v0l215 542v0l69 -92z" />
    <glyph glyph-name="W" unicode="W" horiz-adv-x="865" 
d="M723 700h92l-196 -700h-76l-119 467l68 66h-90v0l-155 -533h-67l-178 622l78 78l133 -489l133 489h100v0l136 -494z" />
    <glyph glyph-name="X" unicode="X" horiz-adv-x="522" 
d="M285 350l186 -350l-53 -90l-177 353l-109 -198h-97l63 -65h-43v0h-55l186 350l-186 350h98l143 -262l134 262h97l-187 -350v0z" />
    <glyph glyph-name="Y" unicode="Y" horiz-adv-x="526" 
d="M463 662l-176 -316v-346l-99 -89v434l-189 355h45v0h55l143 -267l171 321z" />
    <glyph glyph-name="Z" unicode="Z" horiz-adv-x="488" 
d="M101 598v0l-101 102h180l112 -102h-191zM438 700l-290 -606h290v-94h-202l-158 168l214 430v0v102h146z" />
    <glyph glyph-name="zero" unicode="0" horiz-adv-x="498" 
d="M230 699q47 0 86.5 -26.5t68.5 -72.5t45.5 -109.5t16.5 -136.5q0 -77 -16.5 -142t-45.5 -112t-68.5 -73.5t-86.5 -26.5t-87 26t-70 71t-49 106t-23 130h92q4 -52 16.5 -96t30.5 -76.5t41 -50.5t49 -18q21 0 43.5 18.5t40.5 52.5t29.5 82.5t11.5 108.5q0 57 -11.5 103.5
t-29.5 79.5t-40.5 51t-43.5 18q-26 0 -50.5 -18t-44 -51t-31 -79.5t-11.5 -103.5v-21l-85 85q4 64 23 116t49 88.5t68.5 56.5t81.5 20z" />
    <glyph glyph-name="one" unicode="1" horiz-adv-x="253" 
d="M111 592h-112l112 101l92 -102v-590l-92 91v500z" />
    <glyph glyph-name="two" unicode="2" horiz-adv-x="484" 
d="M217 229q-26 -17 -52 -34.5t-47.5 -35.5t-37 -35.5t-19.5 -34.5l372 2l-78 -91h-218l-137 160q26 43 72.5 78t98.5 70q34 21 65 42.5t54.5 44t37.5 46.5t14 50q0 51 -39.5 82.5t-108.5 31.5l-92 80q51 15 109 11.5t107.5 -27t82 -68t32.5 -110.5q0 -44 -19.5 -80.5
t-50 -68.5t-69 -60t-77.5 -53z" />
    <glyph glyph-name="three" unicode="3" horiz-adv-x="495" 
d="M411 342q14 -19 24 -49t10 -65q0 -44 -18.5 -85.5t-50 -73t-72.5 -50.5t-87 -19q-45 0 -84 16.5t-68 46t-46 69t-19 85.5h91q0 -54 34 -90t92 -36q27 0 52 10t44 28.5t30 43.5t11 55q0 31 -12 54.5t-32.5 39t-47.5 23.5t-57 9l-90 79q76 0 111.5 10t47.5 24q25 28 27 54
t-10.5 46t-35 31t-46 9.5t-44 -18.5t-29.5 -53l-73 65q20 42 62 68.5t92 26.5q57 0 97 -28t58 -70.5t11.5 -92.5t-41.5 -94q17 -18 34 -31t35 -38z" />
    <glyph glyph-name="four" unicode="4" horiz-adv-x="526" 
d="M0 333l225 319l68 -57l-233 -332zM385 263h91v-92h-91l-1 -262l-92 92l1 170h-148l-85 92h233v332v0v103v0l92 -79v-356z" />
    <glyph glyph-name="five" unicode="5" horiz-adv-x="545" 
d="M252 460q52 0 96.5 -16.5t76.5 -47t50.5 -73t18.5 -93.5q0 -47 -18.5 -89t-50.5 -73t-76.5 -49t-96.5 -18q-68 0 -114 21t-75 51t-43.5 63.5t-18.5 58.5h92q4 -13 13.5 -30.5t27.5 -33.5t47 -27t71 -11q35 0 63 10.5t47.5 28.5t30 43t10.5 55q0 69 -40.5 109t-110.5 40
q-8 0 -22.5 -1.5t-22.5 -10.5l-137 160l23 173h274l93 -80h-287l-23 -187q17 9 46.5 18t55.5 9z" />
    <glyph glyph-name="six" unicode="6" horiz-adv-x="543" 
d="M457 355q17 -26 26 -58.5t9 -66.5q0 -48 -18 -89.5t-49 -72.5t-73 -49t-89 -18q-129 0 -195.5 90.5t-66.5 263.5q0 73 14.5 132t42.5 103t68.5 71t91.5 36l102 -102q-8 8 -24 9.5t-33 1.5q-47 0 -78 -22.5t-50.5 -56t-29 -71t-13.5 -67.5q68 68 171 68q60 0 110 -29.5
t84 -72.5zM263 92q30 0 55.5 10t43.5 28.5t28.5 44t10.5 55.5q0 25 -10.5 49.5t-28.5 43.5t-43.5 31t-55.5 12q-34 0 -59.5 -13t-42.5 -21l-69 57v-11v-35q0 -21 2.5 -51.5t10 -61.5t21 -59t35.5 -45q34 -34 102 -34z" />
    <glyph glyph-name="seven" unicode="7" horiz-adv-x="498" 
d="M104 0h-103l298 607h-241l80 92h310l-344 -699v0z" />
    <glyph glyph-name="eight" unicode="8" horiz-adv-x="509" 
d="M391 319q29 -27 48 -60t19 -76q0 -45 -20 -79.5t-52 -57.5t-73.5 -34.5t-84.5 -11.5h-11q-50 0 -91.5 18.5t-70.5 49t-43 68.5t-10 77.5t28 76t72 63.5q-42 19 -66.5 61t-24.5 99q0 43 16.5 77t44.5 57t65.5 35.5t79.5 13.5h11q39 0 78 -12t70 -35t50.5 -57t19.5 -79
q0 -49 -30 -92.5t-73 -67.5q17 -8 28 -16.5t20 -17.5zM228 616q-41 0 -68.5 -14t-41.5 -36.5t-14.5 -48.5t13.5 -50.5t41.5 -42.5t69.5 -24q42 7 69 25t39 42t10.5 50t-15.5 48t-40 36.5t-63 14.5zM114 240q-28 -35 -26 -62t22 -46t52.5 -29.5t65.5 -11.5q24 -2 56.5 8.5
t56 30.5t28.5 48t-26 62q-17 16 -48.5 32t-66.5 24q-43 -8 -70 -24t-44 -32z" />
    <glyph glyph-name="nine" unicode="9" horiz-adv-x="487" 
d="M436 423q-2 -59 -18 -128t-48.5 -130.5t-81.5 -107t-118 -57.5l-109 100q57 -9 101 2t77 38t55.5 67.5t35.5 89.5q-26 -17 -57 -25.5t-57 -8.5q-48 0 -88 18t-69 48t-45 69.5t-16 82.5q0 47 16 87t45 69t69 45.5t88 16.5q55 0 97.5 -20t70 -56.5t41 -87.5t11.5 -112z
M330 297q-2 -10 3 9.5t10 54t5.5 77.5t-11.5 80.5t-40.5 63t-80.5 25.5q-26 0 -49 -10t-40.5 -27t-27.5 -40t-10 -49q0 -32 15.5 -59t40 -44t55.5 -21.5t61 9.5z" />
    <glyph glyph-name="ampersand" unicode="&#x26;" horiz-adv-x="714" 
d="M423 104q-32 -58 -80 -80.5t-113 -22.5q-49 0 -91 16.5t-73 46.5t-48.5 72.5t-17.5 93.5q0 28 10 55t26 50t36.5 43t42.5 35q-24 24 -41 56.5t-17 68.5q0 32 15 61.5t39.5 51.5t55.5 35t63 13q30 0 51.5 -6t39.5 -18t34 -29t35 -39l-80 -69q-2 35 -19 52t-40.5 19
t-47.5 -8t-38.5 -29.5t-15.5 -45.5t23 -56l218 -206q8 26 19.5 46t36.5 46l58 -69l-5 -4t-12 -14t-15 -28t-14 -46q17 -16 35.5 -32.5t42.5 -38.5t55 -52t73 -72l-40 -90zM321 127q8 8 16.5 18t17.5 27l-183 172q-47 -20 -64.5 -53t-13 -68.5t26.5 -67.5t54 -50t70.5 -15
t75.5 37z" />
    <glyph glyph-name="exclam" unicode="!" horiz-adv-x="140" 
d="M0 78l90 -79v0h-90v12v599l90 90v0v-622h-90v0z" />
    <glyph glyph-name="quotedbl" unicode="&#x22;" horiz-adv-x="201" 
d="M71 585l-70 62v53h70v-115zM151 585l-71 62v53h71v-115z" />
    <glyph glyph-name="quotesingle" unicode="'" horiz-adv-x="122" 
d="M1 647v53h71v-115z" />
    <glyph glyph-name="question" unicode="?" horiz-adv-x="480" 
d="M223 699q43 0 81.5 -16.5t67 -46t45 -70.5t16.5 -89q0 -44 -16 -83t-42.5 -74t-60 -65.5t-67.5 -56.5q-18 -18 -34 -37.5t-25 -45.5h-99l122 -116h-117q-8 18 -9 35.5t-1 34.5q0 38 20 74t49.5 70t64 67.5t64 66t49.5 65t20 65.5q0 61 -33.5 95t-94.5 34q-62 0 -96.5 -34
t-42.5 -95h-83q4 48 23 89t48.5 70.5t68 46t82.5 16.5z" />
    <glyph glyph-name="a" unicode="a" horiz-adv-x="489" 
d="M353 47q-33 -26 -63 -36.5t-71 -10.5q-45 0 -85 17.5t-69.5 47t-47 69.5t-17.5 85t17.5 85t47 70t69.5 47.5t85 17.5q44 0 83 -17t69 -47t48 -70t20 -86v-88l-86 70v-154zM221 102q45 0 75 18t45 44.5t14.5 58t-15.5 58t-45 44.5t-74 18q-57 0 -92 -33.5t-35 -91.5
q0 -57 35 -86.5t92 -29.5z" />
    <glyph glyph-name="b" unicode="b" horiz-adv-x="492" 
d="M220 440q46 0 86.5 -17t70.5 -47t47.5 -70t17.5 -86q0 -45 -17.5 -85t-47.5 -70t-70.5 -47.5t-86.5 -17.5q-41 0 -79 17t-68 46t-49.5 67t-23.5 80v452l94 -68v-196q24 25 54.5 33.5t71.5 8.5zM219 101q57 -1 93 32t36 85q0 29 -10 54t-27 43t-40.5 28.5t-50.5 10.5
q-16 0 -32.5 -6.5t-33.5 -14.5l-60 64v-171q0 -57 33 -90.5t92 -34.5z" />
    <glyph glyph-name="c" unicode="c" horiz-adv-x="480" 
d="M430 164q-8 -37 -28 -67t-47.5 -51.5t-62 -33.5t-71.5 -12q-45 0 -85 17.5t-70 47.5t-47.5 70t-17.5 85t17.5 85t47.5 70t70 47.5t85 17.5q17 0 33 -1.5t33 -9.5l-65 -74h162l-42 -58q-25 33 -56 45.5t-64 12.5q-29 0 -52.5 -10.5t-40.5 -29.5t-26.5 -44t-9.5 -54
q0 -58 35 -95t93 -37q41 0 72.5 23.5t48.5 55.5h88z" />
    <glyph glyph-name="d" unicode="d" horiz-adv-x="505" 
d="M455 589v-380q-1 -31 -14 -67.5t-41 -68t-72 -52.5t-108 -21q-45 0 -85 17.5t-70 47.5t-47.5 70t-17.5 85t17.5 85t47.5 70t70 47.5t85 17.5q42 0 76 -15t67 -39l-62 -69q-11 12 -32.5 19.5t-46.5 7.5q-30 0 -54 -11.5t-40.5 -29.5t-25.5 -40t-9 -43q0 -24 9.5 -47.5
t26.5 -42t40.5 -30t50.5 -11.5q29 0 55 9.5t45.5 27t31 41.5t11.5 53v55v111v276z" />
    <glyph glyph-name="e" unicode="e" horiz-adv-x="489" 
d="M439 172q-25 -86 -85 -129t-135 -43q-45 0 -85 17.5t-70 47.5t-47.5 70t-17.5 85q0 46 17.5 86t47.5 70t70 47t85 17q51 0 97.5 -21.5t79.5 -54.5l-132 -144h-171q0 -58 33.5 -95t91.5 -38q24 0 48 7.5t44.5 24t34.5 41.5t18 60zM218 361q-33 0 -62.5 -15t-46.5 -48h226
q-17 33 -46 48t-71 15z" />
    <glyph glyph-name="f" unicode="f" horiz-adv-x="340" 
d="M290 565q-48 -8 -76 -42t-36 -83l-79 69q8 28 27 54t44.5 47t56.5 34.5t63 17.5v-97zM0 440h86h204v-81h-112v-253l-92 -108v361z" />
    <glyph glyph-name="g" unicode="g" horiz-adv-x="496" 
d="M446 -21q0 -31 -8.5 -62t-25 -58.5t-40.5 -50.5t-55 -38l-66 67q20 8 38.5 20.5t32.5 29t22.5 36.5t8.5 44v12v75q-23 -25 -60 -39.5t-78 -14.5q-45 0 -84 17t-68 47t-46 71t-17 89q0 44 16.5 83.5t45.5 69t67.5 46.5t83.5 17q61 0 102 -17.5t66.5 -43.5t39 -56.5t19 -57
t6 -44t0.5 -18.5v-224zM353 203q1 50 -17.5 83t-47 49.5t-62 17t-63 -14.5t-50 -44.5t-22.5 -73.5q-2 -60 32 -89.5t85 -33.5q24 -2 49.5 5.5t41.5 22.5l54 -70v148z" />
    <glyph glyph-name="h" unicode="h" horiz-adv-x="476" 
d="M370 392q25 -25 40.5 -60t15.5 -85v-247h-90v247q-1 36 -18.5 61t-44 38t-57 13.5t-58.5 -12.5l-69 56v-403l-89 78v582l90 -81l-1 -176q22 18 60 27t79.5 8.5t80 -12t61.5 -34.5z" />
    <glyph glyph-name="i" unicode="i" horiz-adv-x="142" 
d="M0 0v440h92v-440h-92zM0 584h92v-144l-92 89v55z" />
    <glyph glyph-name="ydieresis" unicode="&#xff;" horiz-adv-x="500" 
 />
    <glyph glyph-name="j" unicode="j" horiz-adv-x="278" 
d="M133 600h95v-160l-94 86v72zM134 440h94v-500v-20q0 -23 -8 -47.5t-20 -46t-27 -37t-30 -19.5h-142q27 5 51 17t42 32.5t29 49.5t11 67v504z" />
    <glyph glyph-name="k" unicode="k" horiz-adv-x="390" 
d="M230 0l-230 237v424l91 -79v-286l139 144h110l-204 -218q70 -70 108 -111t57.5 -63.5t26 -32t12.5 -15.5h-110z" />
    <glyph glyph-name="l" unicode="l" horiz-adv-x="143" 
d="M0 0v662h93v-579z" />
    <glyph glyph-name="m" unicode="m" horiz-adv-x="785" 
d="M680 394q25 -25 40 -59t15 -84v-153l-87 -99v252q0 51 -28.5 80.5t-81.5 29.5q-37 0 -62 -12t-39.5 -27.5t-20 -31.5t-3.5 -24l2 -266l-97 -1v198v43q0 66 -22 93.5t-77 27.5q-25 0 -47.5 -4t-40 -15.5t-28 -30.5t-11.5 -49v-263h-92v340v99l118 -104l-8 82
q25 17 51.5 20.5t58.5 3.5q24 0 47.5 -3t44.5 -11t37 -21t24 -33q31 43 72.5 55.5t93.5 12.5q50 0 83.5 -10.5t57.5 -35.5z" />
    <glyph glyph-name="n" unicode="n" 
d="M121 330q-17 -17 -23.5 -34t-6.5 -33v-263l-91 77v362zM363 396q16 -14 24.5 -30.5t12.5 -34.5t5 -37.5t1 -40.5v-253h-88v253q0 24 -5 45t-16 32q-12 13 -36.5 19t-51.5 6t-51.5 -6.5t-36.5 -18.5l-11 88q25 8 51 15t59 7q42 0 80 -13.5t63 -30.5z" />
    <glyph glyph-name="o" unicode="o" horiz-adv-x="490" 
d="M220 440q45 0 85 -17t70 -47t47.5 -70t17.5 -85t-17.5 -85t-47.5 -70t-70 -47.5t-85 -17.5q-37 0 -69.5 11.5t-59.5 32.5t-47.5 49t-32.5 61h91q17 -33 50.5 -50.5t75.5 -17.5q58 0 91 38.5t33 96.5t-36.5 93.5t-94.5 35.5q-40 0 -68 -17.5t-43.5 -45.5t-17.5 -63t10 -70
l-102 88q4 41 23.5 77t49.5 62.5t68 42t79 15.5z" />
    <glyph glyph-name="p" unicode="p" horiz-adv-x="499" 
d="M229 440q45 0 85 -17.5t70 -47.5t47.5 -70t17.5 -85t-17.5 -85t-47.5 -70t-70 -47.5t-85 -17.5q-41 0 -72 13.5t-64 30.5v-179l-93 -95v459q2 49 20.5 88t49.5 66.5t71.5 42t87.5 14.5zM229 87q26 0 49 11t40.5 29.5t27.5 42.5t10 50q0 29 -9.5 53.5t-26.5 42.5t-41 28
t-53 10t-51.5 -11t-39 -30t-27 -44t-15.5 -52v-172l56 72q17 -17 36 -23.5t44 -6.5z" />
    <glyph glyph-name="q" unicode="q" horiz-adv-x="505" 
d="M223 440q46 0 88 -15.5t74 -43.5t51 -67t19 -85v-458l-86 94v174v178q0 31 -10 56.5t-29 43.5t-46 27.5t-61 7.5q-59 -3 -95.5 -39.5t-36.5 -95.5q0 -58 36.5 -95.5t95.5 -37.5q25 0 47.5 7.5t38.5 24.5l60 -66q-27 -26 -65.5 -41t-80.5 -15q-46 0 -86.5 17.5t-71 47.5
t-48 70.5t-17.5 87.5q0 46 17.5 86.5t48 71t71 48t86.5 17.5z" />
    <glyph glyph-name="r" unicode="r" horiz-adv-x="290" 
d="M240 353l2 -1q-8 8 -16.5 9t-16.5 1q-21 0 -40 -8t-35 -22t-27 -32t-15 -39v-260l-92 76v319v44q16 -17 23.5 -24t11 -10.5l6 -6t11 -10.5t24.5 -23t47 -44l-13 96q24 8 52 15t78 7v-87z" />
    <glyph glyph-name="s" unicode="s" horiz-adv-x="325" 
d="M165 264q60 -19 85 -54t25 -77q0 -66 -45 -99t-121 -33q-25 0 -49 2.5t-49 19.5v77q25 -8 49 -20t49 -12q34 0 56.5 14.5t22.5 39.5t-18.5 37.5t-60.5 29.5q-57 24 -83 51t-26 69q0 29 11.5 53t32 41.5t48.5 27t61 9.5q17 0 39.5 -1t37.5 -9l-53 -66h-27.5t-29 -3.5
t-23 -12.5t-9.5 -28q0 -17 17.5 -30t59.5 -26z" />
    <glyph glyph-name="t" unicode="t" horiz-adv-x="308" 
d="M258 440v-81h-75v-254l-93 -105v348v0v11v0l-90 81h90v222h93v-222h75z" />
    <glyph glyph-name="u" unicode="u" 
d="M318 34q-11 -11 -27 -17t-34 -10t-36.5 -5t-33.5 -1q-50 0 -84 9.5t-60 33.5q-24 25 -33.5 59.5t-9.5 85.5v251l93 -81v-171q0 -26 4 -46.5t14.5 -35t28.5 -22t47 -7.5q21 0 43.5 6t41.5 18.5t31.5 31.5t14.5 45v262h88v-341l-88 79v-144z" />
    <glyph glyph-name="v" unicode="v" horiz-adv-x="393" 
d="M341 344l-150 -344l-192 441l69 71l123 -305l108 233z" />
    <glyph glyph-name="w" unicode="w" horiz-adv-x="568" 
d="M518 331l-120 -332l-121 308l-121 -308l-156 428l62 97l98 -272l77 188h77l84 -188l68 188z" />
    <glyph glyph-name="x" unicode="x" horiz-adv-x="414" 
d="M229 215l135 -215l-54 -86l-49 86l-80 136l-79 -136v0l-68 57l102 159l-136 224h102l79 -134l90 134h93z" />
    <glyph glyph-name="y" unicode="y" horiz-adv-x="494" 
d="M444 440l-174 -293l-66 66l138 227h102zM204 213v0v-182l-159 -262v0l1 181l112 186l-158 215l44 89z" />
    <glyph glyph-name="z" unicode="z" horiz-adv-x="412" 
d="M362 440l-202 -351h191l-1 -89h-350l218 363h-114l-91 77h120l85 -77v77h144z" />
    <glyph glyph-name="space" unicode=" " horiz-adv-x="294" 
 />
    <glyph glyph-name="A" unicode="A" horiz-adv-x="638" 
d="M520 0v0l-84 214h-250l-123 -304l-63 90l90 214v0v0l-79 91h113l147 395h68l248 -621zM214 305h193l-102 260z" />
    <glyph glyph-name="comma" unicode="," horiz-adv-x="121" 
d="M0 1v53h71v-115z" />
    <glyph glyph-name="semicolon" unicode=";" horiz-adv-x="122" 
d="M72 75v117h-72v-54zM72 323h-72v72h72v-72v0z" />
    <glyph glyph-name="colon" unicode=":" horiz-adv-x="122" 
d="M72 323h-72v72h72v-72zM72 121h-72v72h72v-72z" />
    <glyph glyph-name="period" unicode="." horiz-adv-x="121" 
d="M72 0h-72v72h72v-72z" />
    <glyph glyph-name="Scaron" unicode="&#x160;" horiz-adv-x="500" 
 />
  </font>
</defs>
</svg>
